<mxfile host="65bd71144e" linkTarget="_blank" scale="1" border="0">
    <diagram id="TVH5ozZ_mnaa8bIVwxwm" name="Page-1">
        <mxGraphModel dx="1009" dy="193" grid="1" gridSize="10" guides="1" tooltips="1" connect="1" arrows="1" fold="1" page="1" pageScale="1" pageWidth="3300" pageHeight="4681" math="0" shadow="0" adaptiveColors="simple">
            <root>
                <mxCell id="0"/>
                <mxCell id="1" parent="0"/>
                <mxCell id="4" style="edgeStyle=none;html=1;exitX=1;exitY=0.5;exitDx=0;exitDy=0;entryX=0;entryY=0.5;entryDx=0;entryDy=0;" parent="1" source="2" target="3" edge="1">
                    <mxGeometry relative="1" as="geometry"/>
                </mxCell>
                <mxCell id="2" value="Scraper" style="html=1;whiteSpace=wrap;" parent="1" vertex="1">
                    <mxGeometry x="130" y="200" width="120" height="50" as="geometry"/>
                </mxCell>
                <mxCell id="6" style="edgeStyle=none;html=1;exitX=1;exitY=0.5;exitDx=0;exitDy=0;entryX=0;entryY=0.5;entryDx=0;entryDy=0;" parent="1" source="3" target="5" edge="1">
                    <mxGeometry relative="1" as="geometry"/>
                </mxCell>
                <mxCell id="3" value="&lt;p style=&quot;margin:0px;margin-top:4px;text-align:center;text-decoration:underline;&quot;&gt;&lt;b&gt;Object: Flat&lt;/b&gt;&lt;/p&gt;&lt;p style=&quot;margin: 4px 0px 0px; text-align: center;&quot;&gt;&lt;b&gt;&lt;u&gt;id&lt;/u&gt;&lt;/b&gt;&lt;/p&gt;&lt;p style=&quot;margin: 4px 0px 0px; text-align: center;&quot;&gt;&lt;b&gt;&lt;u&gt;price&lt;/u&gt;&lt;/b&gt;&lt;/p&gt;&lt;p style=&quot;margin: 4px 0px 0px; text-align: center;&quot;&gt;&lt;b&gt;&lt;u&gt;price_per_sqm&lt;/u&gt;&lt;/b&gt;&lt;/p&gt;&lt;p style=&quot;margin: 4px 0px 0px; text-align: center;&quot;&gt;&lt;b&gt;&lt;u&gt;district&lt;/u&gt;&lt;/b&gt;&lt;/p&gt;&lt;p style=&quot;margin: 4px 0px 0px; text-align: center;&quot;&gt;&lt;b&gt;&lt;u&gt;rooms&lt;/u&gt;&lt;/b&gt;&lt;/p&gt;&lt;p style=&quot;margin: 4px 0px 0px; text-align: center;&quot;&gt;&lt;b&gt;&lt;u&gt;floor&lt;/u&gt;&lt;/b&gt;&lt;/p&gt;&lt;p style=&quot;margin: 4px 0px 0px; text-align: center;&quot;&gt;&lt;b&gt;&lt;u&gt;square&lt;/u&gt;&lt;/b&gt;&lt;/p&gt;&lt;p style=&quot;margin: 4px 0px 0px; text-align: center;&quot;&gt;&lt;b&gt;&lt;u&gt;room_squares&lt;/u&gt;&lt;/b&gt;&lt;/p&gt;&lt;p style=&quot;margin: 4px 0px 0px; text-align: center;&quot;&gt;&lt;b&gt;&lt;u&gt;year&lt;/u&gt;&lt;/b&gt;&lt;/p&gt;&lt;p style=&quot;margin: 4px 0px 0px; text-align: center;&quot;&gt;&lt;/p&gt;&lt;p style=&quot;margin: 4px 0px 0px; text-align: center;&quot;&gt;&lt;b&gt;&lt;u&gt;date_of_scrap&lt;/u&gt;&lt;/b&gt;&lt;/p&gt;" style="verticalAlign=top;align=left;overflow=fill;html=1;whiteSpace=wrap;" parent="1" vertex="1">
                    <mxGeometry x="330" y="120" width="160" height="210" as="geometry"/>
                </mxCell>
                <mxCell id="5" value="Database" style="shape=datastore;whiteSpace=wrap;html=1;" parent="1" vertex="1">
                    <mxGeometry x="560" y="165" width="140" height="120" as="geometry"/>
                </mxCell>
                <mxCell id="13" style="edgeStyle=none;html=1;exitX=0;exitY=0.75;exitDx=0;exitDy=0;entryX=1;entryY=0.5;entryDx=0;entryDy=0;" parent="1" source="7" target="12" edge="1">
                    <mxGeometry relative="1" as="geometry"/>
                </mxCell>
                <mxCell id="7" value="" style="shape=actor;whiteSpace=wrap;html=1;" parent="1" vertex="1">
                    <mxGeometry x="1300" y="450" width="40" height="60" as="geometry"/>
                </mxCell>
                <mxCell id="15" style="edgeStyle=none;html=1;exitX=0;exitY=0.5;exitDx=0;exitDy=0;" parent="1" source="12" edge="1">
                    <mxGeometry relative="1" as="geometry">
                        <mxPoint x="970" y="493" as="targetPoint"/>
                    </mxGeometry>
                </mxCell>
                <mxCell id="12" value="&lt;p style=&quot;margin:0px;margin-top:4px;text-align:center;text-decoration:underline;&quot;&gt;&lt;b&gt;Object:User&lt;/b&gt;&lt;/p&gt;&lt;p style=&quot;text-align: center; margin: 0px 0px 0px 8px;&quot;&gt;&lt;br&gt;&lt;/p&gt;&lt;p style=&quot;text-align: center; margin: 0px 0px 0px 8px;&quot;&gt;id&lt;/p&gt;&lt;p style=&quot;text-align: center; margin: 0px 0px 0px 8px;&quot;&gt;name&lt;/p&gt;&lt;p style=&quot;text-align: center; margin: 0px 0px 0px 8px;&quot;&gt;surname&lt;/p&gt;&lt;p style=&quot;text-align: center; margin: 0px 0px 0px 8px;&quot;&gt;email&lt;/p&gt;&lt;p style=&quot;text-align: center; margin: 0px 0px 0px 8px;&quot;&gt;date_of_registration&lt;/p&gt;&lt;p style=&quot;text-align: center; margin: 0px 0px 0px 8px;&quot;&gt;status&lt;/p&gt;" style="verticalAlign=top;align=left;overflow=fill;html=1;whiteSpace=wrap;" parent="1" vertex="1">
                    <mxGeometry x="1060" y="410" width="160" height="165" as="geometry"/>
                </mxCell>
                <mxCell id="14" value="&lt;div&gt;&lt;br&gt;&lt;/div&gt;&lt;div&gt;&lt;br&gt;&lt;/div&gt;Authorization&amp;nbsp; &amp;amp; Authentication Block" style="verticalAlign=top;align=center;spacingTop=8;spacingLeft=2;spacingRight=12;shape=cube;size=10;direction=south;fontStyle=4;html=1;whiteSpace=wrap;" parent="1" vertex="1">
                    <mxGeometry x="650" y="450" width="140" height="92.5" as="geometry"/>
                </mxCell>
                <mxCell id="18" style="edgeStyle=none;html=1;exitX=0.5;exitY=0;exitDx=0;exitDy=0;" parent="1" source="16" target="19" edge="1">
                    <mxGeometry relative="1" as="geometry">
                        <mxPoint x="915.3529411764707" y="360" as="targetPoint"/>
                    </mxGeometry>
                </mxCell>
                <mxCell id="16" value="Security &amp;amp; DDoS Middleware" style="html=1;whiteSpace=wrap;" parent="1" vertex="1">
                    <mxGeometry x="860" y="467.5" width="110" height="50" as="geometry"/>
                </mxCell>
                <mxCell id="17" style="edgeStyle=none;html=1;exitX=0;exitY=0.5;exitDx=0;exitDy=0;entryX=0;entryY=0;entryDx=41.25;entryDy=0;entryPerimeter=0;" parent="1" source="16" target="14" edge="1">
                    <mxGeometry relative="1" as="geometry"/>
                </mxCell>
                <mxCell id="19" value="IP and rieltor ID review" style="html=1;whiteSpace=wrap;" parent="1" vertex="1">
                    <mxGeometry x="860.3529411764707" y="335" width="110" height="50" as="geometry"/>
                </mxCell>
                <mxCell id="20" value="" style="shape=doubleArrow;whiteSpace=wrap;html=1;rotation=25;" parent="1" vertex="1">
                    <mxGeometry x="710" y="275" width="140.35" height="60" as="geometry"/>
                </mxCell>
                <mxCell id="28" style="edgeStyle=none;html=1;exitX=0;exitY=0;exitDx=51.25;exitDy=140;exitPerimeter=0;entryX=1;entryY=0.5;entryDx=0;entryDy=0;" parent="1" source="24" target="27" edge="1">
                    <mxGeometry relative="1" as="geometry"/>
                </mxCell>
                <mxCell id="24" value="&lt;div&gt;&lt;br&gt;&lt;/div&gt;&lt;div&gt;&lt;br&gt;&lt;/div&gt;API Gateway" style="verticalAlign=top;align=center;spacingTop=8;spacingLeft=2;spacingRight=12;shape=cube;size=10;direction=south;fontStyle=4;html=1;whiteSpace=wrap;" parent="1" vertex="1">
                    <mxGeometry x="430" y="450" width="140" height="92.5" as="geometry"/>
                </mxCell>
                <mxCell id="26" style="edgeStyle=none;html=1;exitX=0;exitY=0;exitDx=51.25;exitDy=140;exitPerimeter=0;entryX=0.557;entryY=-0.006;entryDx=0;entryDy=0;entryPerimeter=0;" parent="1" source="14" target="24" edge="1">
                    <mxGeometry relative="1" as="geometry"/>
                </mxCell>
                <mxCell id="30" style="edgeStyle=none;html=1;exitX=0.5;exitY=0;exitDx=0;exitDy=0;entryX=0;entryY=0.5;entryDx=0;entryDy=0;" parent="1" source="27" target="29" edge="1">
                    <mxGeometry relative="1" as="geometry">
                        <Array as="points">
                            <mxPoint x="290" y="385"/>
                        </Array>
                    </mxGeometry>
                </mxCell>
                <mxCell id="27" value="Services" style="html=1;whiteSpace=wrap;" parent="1" vertex="1">
                    <mxGeometry x="220" y="462.5" width="140" height="80" as="geometry"/>
                </mxCell>
                <mxCell id="31" style="edgeStyle=none;html=1;exitX=1;exitY=0.5;exitDx=0;exitDy=0;entryX=0.5;entryY=1;entryDx=0;entryDy=0;" parent="1" source="29" target="5" edge="1">
                    <mxGeometry relative="1" as="geometry">
                        <Array as="points">
                            <mxPoint x="630" y="385"/>
                        </Array>
                    </mxGeometry>
                </mxCell>
                <mxCell id="29" value="&lt;p style=&quot;margin:0px;margin-top:4px;text-align:center;&quot;&gt;&lt;b&gt;Class Repository&lt;/b&gt;&lt;/p&gt;&lt;hr size=&quot;1&quot; style=&quot;border-style:solid;&quot;&gt;&lt;div style=&quot;height:2px;&quot;&gt;&lt;/div&gt;" style="verticalAlign=top;align=left;overflow=fill;html=1;whiteSpace=wrap;" parent="1" vertex="1">
                    <mxGeometry x="390" y="350" width="140" height="70" as="geometry"/>
                </mxCell>
            </root>
        </mxGraphModel>
    </diagram>
</mxfile>